<?xml version="1.0" encoding="UTF-8"?>
<!-- Generated by Pixelmator Pro 3.8 -->
<svg width="512" height="512" viewBox="0 0 512 512" xmlns="http://www.w3.org/2000/svg">
    <g id="Group">
        <linearGradient id="linearGradient1" x1="45.714286" y1="22.857143" x2="466.285714" y2="489.142857" gradientUnits="userSpaceOnUse">
            <stop offset="0" stop-color="#007cff" stop-opacity="1"/>
            <stop offset="1" stop-color="#00bcff" stop-opacity="1"/>
        </linearGradient>
        <path id="Path" fill="url(#linearGradient1)" stroke="none" d="M 118.85714 0 L 393.142853 0 C 458.785858 0 512 53.214142 512 118.857147 L 512 393.142853 C 512 458.785858 458.785858 512 393.142853 512 L 118.85714 512 C 53.214153 512 -0 458.785858 -0 393.142853 L -0 118.857147 C -0 53.214142 53.214153 0 118.85714 0 Z"/>
        <path id="path1" fill="none" stroke="#8b4513" stroke-width="25.142857" stroke-linecap="round" opacity="0.18" d="M 65.14286 372.571411 C 116.571426 426.285706 188.571426 456 256 456 C 323.428558 456 395.428558 426.285706 446.857147 372.571411"/>
        <g id="g1">
            <path id="path2" fill="#ffffff" stroke="none" d="M 153.674652 65.880463 L 224.644867 48.185608 C 235.668671 45.437042 246.833359 52.145477 249.581909 63.169281 L 278.889008 180.713684 C 281.637543 191.737518 274.929138 202.902191 263.905304 205.650726 L 192.935135 223.345612 C 181.911301 226.094147 170.746613 219.385712 167.998077 208.361908 L 138.690964 90.817535 C 135.942413 79.793701 142.650848 68.628998 153.674652 65.880463 Z"/>
            <path id="path3" fill="none" stroke="#231f20" stroke-width="9.142858" d="M 153.674652 65.880463 L 224.644867 48.185608 C 235.668671 45.437042 246.833359 52.145477 249.581909 63.169281 L 278.889008 180.713684 C 281.637543 191.737518 274.929138 202.902191 263.905304 205.650726 L 192.935135 223.345612 C 181.911301 226.094147 170.746613 219.385712 167.998077 208.361908 L 138.690964 90.817535 C 135.942413 79.793701 142.650848 68.628998 153.674652 65.880463 Z"/>
            <text id="A" transform="matrix(0.970296 -0.241922 0.241922 0.970296 -18.52495 45.12639)" xml:space="preserve" x="154" y="115" font-family="Arial" font-size="48" font-weight="700" fill="#e11d48">A</text>
            <path id="path4" fill="#e11d48" stroke="none" d="M 168.053436 139.249146 C 166.024063 131.109772 173.696777 124.541595 181.362778 128.615479 C 186.218857 121.419495 196.077057 123.61673 198.106415 131.756104 C 200.916306 143.02594 187.763077 154.285706 187.763077 154.285706 C 187.763077 154.285706 170.863327 150.519012 168.053436 139.249146 Z"/>
            <path id="path5" fill="#ffffff" stroke="none" d="M 290.817535 62.119537 L 361.787689 79.814392 C 372.811523 82.562958 379.519958 93.727631 376.771423 104.751434 L 347.464294 222.295837 C 344.715759 233.319641 333.551056 240.028076 322.527252 237.279541 L 251.557037 219.584686 C 240.533234 216.836121 233.824814 205.671417 236.573349 194.647644 L 265.880463 77.103241 C 268.628998 66.079407 279.793701 59.371002 290.817535 62.119537 Z"/>
            <path id="path6" fill="none" stroke="#231f20" stroke-width="9.142858" d="M 290.817535 62.119537 L 361.787689 79.814392 C 372.811523 82.562958 379.519958 93.727631 376.771423 104.751434 L 347.464294 222.295837 C 344.715759 233.319641 333.551056 240.028076 322.527252 237.279541 L 251.557037 219.584686 C 240.533234 216.836121 233.824814 205.671417 236.573349 194.647644 L 265.880463 77.103241 C 268.628998 66.079407 279.793701 59.371002 290.817535 62.119537 Z"/>
            <text id="K" transform="matrix(0.970296 0.241922 -0.241922 0.970296 32.940098 -68.275571)" xml:space="preserve" x="274" y="117" font-family="Arial" font-size="48" font-weight="700" fill="#111827">K</text>
            <path id="path7" fill="#111827" stroke="none" d="M 286.881073 123.202301 L 296 143.804596 L 278.276276 157.714294 L 269.157349 137.111969 L 286.881073 123.202301 Z"/>
        </g>
        <g id="g2">
            <linearGradient id="linearGradient2" x1="96" y1="153.142857" x2="416" y2="356.571429" gradientUnits="userSpaceOnUse">
                <stop offset="1e-05" stop-color="#fff7c2" stop-opacity="1"/>
                <stop offset="1" stop-color="#ffcc2a" stop-opacity="1"/>
            </linearGradient>
            <path id="path8" fill="url(#linearGradient2)" stroke="#231f20" stroke-width="16" stroke-linejoin="round" d="M 91.428574 202.285706 C 91.428574 168 118.85714 140.571442 153.142853 140.571442 L 358.857147 140.571442 C 393.142853 140.571442 420.571442 168 420.571442 202.285706 L 420.571442 325.714294 C 420.571442 344 405.714294 358.857147 387.428558 358.857147 L 124.571426 358.857147 C 106.285713 358.857147 91.428574 344 91.428574 325.714294 L 91.428574 202.285706 Z"/>
            <path id="path9" fill="#231f20" stroke="none" d="M 159.358124 165.714294 L 350.356171 165.714294 C 360.73175 165.714294 369.142853 171.854401 369.142853 179.428558 L 369.142853 190.857147 C 369.142853 198.431335 360.73175 204.571442 350.356171 204.571442 L 159.358124 204.571442 C 148.982529 204.571442 140.571426 198.431335 140.571426 190.857147 L 140.571426 179.428558 C 140.571426 171.854401 148.982529 165.714294 159.358124 165.714294 Z"/>
            <text id="RIDE-THE-BUS" xml:space="preserve" x="160.436942" y="197" font-family="Arial" font-size="25.142857" font-weight="700" fill="#ffffff" letter-spacing="1.142857">RIDE THE BUS</text>
            <path id="path10" fill="#e0f2fe" stroke="#231f20" stroke-width="9.142858" d="M 131.428574 219.428558 L 180.571426 219.428558 C 188.145615 219.428558 194.285721 225.568665 194.285721 233.142853 L 194.285721 267.428589 C 194.285721 275.002747 188.145615 281.142853 180.571426 281.142853 L 131.428574 281.142853 C 123.854385 281.142853 117.714287 275.002747 117.714287 267.428589 L 117.714287 233.142853 C 117.714287 225.568665 123.854385 219.428558 131.428574 219.428558 Z"/>
            <path id="path11" fill="#e0f2fe" stroke="#231f20" stroke-width="9.142858" d="M 230.857147 219.428558 L 281.142853 219.428558 C 288.717041 219.428558 294.857147 225.568665 294.857147 233.142853 L 294.857147 267.428589 C 294.857147 275.002747 288.717041 281.142853 281.142853 281.142853 L 230.857147 281.142853 C 223.282959 281.142853 217.142853 275.002747 217.142853 267.428589 L 217.142853 233.142853 C 217.142853 225.568665 223.282959 219.428558 230.857147 219.428558 Z"/>
            <path id="path12" fill="#e0f2fe" stroke="#231f20" stroke-width="9.142858" d="M 331.428558 219.428558 L 380.571442 219.428558 C 388.145599 219.428558 394.285706 225.568665 394.285706 233.142853 L 394.285706 267.428589 C 394.285706 275.002747 388.145599 281.142853 380.571442 281.142853 L 331.428558 281.142853 C 323.854401 281.142853 317.714294 275.002747 317.714294 267.428589 L 317.714294 233.142853 C 317.714294 225.568665 323.854401 219.428558 331.428558 219.428558 Z"/>
            <path id="path13" fill="#231f20" stroke="none" opacity="0.9" d="M 186.857147 307.428589 L 325.142853 307.428589 C 333.032654 307.428589 339.428558 313.824493 339.428558 321.714294 L 339.428558 321.714294 C 339.428558 329.604065 333.032654 336 325.142853 336 L 186.857147 336 C 178.967361 336 172.571426 329.604065 172.571426 321.714294 L 172.571426 321.714294 C 172.571426 313.824493 178.967361 307.428589 186.857147 307.428589 Z"/>
            <path id="path14" fill="#ffffff" stroke="#231f20" stroke-width="6.857143" d="M 142.857147 317.714294 C 142.857147 325.288452 136.717041 331.428589 129.142853 331.428589 C 121.568672 331.428589 115.428574 325.288452 115.428574 317.714294 C 115.428574 310.140106 121.568672 304 129.142853 304 C 136.717041 304 142.857147 310.140106 142.857147 317.714294 Z"/>
            <path id="path15" fill="#ffffff" stroke="#231f20" stroke-width="6.857143" d="M 396.571442 317.714294 C 396.571442 325.288452 390.431335 331.428589 382.857147 331.428589 C 375.282959 331.428589 369.142853 325.288452 369.142853 317.714294 C 369.142853 310.140106 375.282959 304 382.857147 304 C 390.431335 304 396.571442 310.140106 396.571442 317.714294 Z"/>
            <path id="path16" fill="#231f20" stroke="none" d="M 202.285721 371.428589 C 202.285721 395.413513 182.842072 414.857147 158.857147 414.857147 C 134.872208 414.857147 115.428574 395.413513 115.428574 371.428589 C 115.428574 347.443634 134.872208 328 158.857147 328 C 182.842072 328 202.285721 347.443634 202.285721 371.428589 Z"/>
            <path id="path17" fill="#f8fafc" stroke="none" d="M 177.142853 371.428589 C 177.142853 381.527466 168.95607 389.714294 158.857147 389.714294 C 148.758209 389.714294 140.571426 381.527466 140.571426 371.428589 C 140.571426 361.329651 148.758209 353.142853 158.857147 353.142853 C 168.95607 353.142853 177.142853 361.329651 177.142853 371.428589 Z"/>
            <path id="path18" fill="#231f20" stroke="none" d="M 396.571442 371.428589 C 396.571442 395.413513 377.127777 414.857147 353.142853 414.857147 C 329.157928 414.857147 309.714294 395.413513 309.714294 371.428589 C 309.714294 347.443634 329.157928 328 353.142853 328 C 377.127777 328 396.571442 347.443634 396.571442 371.428589 Z"/>
            <path id="path19" fill="#f8fafc" stroke="none" d="M 371.428558 371.428589 C 371.428558 381.527466 363.24176 389.714294 353.142853 389.714294 C 343.043945 389.714294 334.857147 381.527466 334.857147 371.428589 C 334.857147 361.329651 343.043945 353.142853 353.142853 353.142853 C 363.24176 353.142853 371.428558 361.329651 371.428558 371.428589 Z"/>
        </g>
    </g>
</svg>
