<svg xmlns="http://www.w3.org/2000/svg" viewBox="0 0 512 512" role="img" aria-label="Ride the Bus icon">
  <defs>
    <linearGradient id="felt" x1="0" x2="1" y1="0" y2="1">
      <stop offset="0" stop-color="#0f4b38"/>
      <stop offset="1" stop-color="#071812"/>
    </linearGradient>
    <filter id="shadow" x="-20%" y="-20%" width="140%" height="140%">
      <feDropShadow dx="0" dy="20" stdDeviation="18" flood-color="#000" flood-opacity=".35"/>
    </filter>
  </defs>
  <rect width="512" height="512" rx="112" fill="url(#felt)"/>
  <path d="M82 353c42 31 96 47 162 47 76 0 136-21 184-63" fill="none" stroke="#d7b56d" stroke-width="15" stroke-linecap="round" opacity=".42"/>
  <g filter="url(#shadow)" transform="rotate(-8 256 256)">
    <rect x="156" y="76" width="214" height="314" rx="24" fill="#fbf2d9"/>
    <rect x="176" y="96" width="174" height="274" rx="17" fill="none" stroke="#15362d" stroke-width="8" opacity=".2"/>
    <circle cx="219" cy="176" r="26" fill="#b72e35"/>
    <path d="M284 154l27 53h-54z" fill="#111827"/>
    <path d="M206 285h114c19 0 35 16 35 35v10H171v-10c0-19 16-35 35-35z" fill="#163d31"/>
    <rect x="196" y="245" width="134" height="74" rx="18" fill="#163d31"/>
    <rect x="216" y="259" width="34" height="28" rx="7" fill="#fbf2d9"/>
    <rect x="278" y="259" width="34" height="28" rx="7" fill="#fbf2d9"/>
    <circle cx="213" cy="329" r="13" fill="#111827"/>
    <circle cx="314" cy="329" r="13" fill="#111827"/>
  </g>
</svg>
